<?xml version="1.0" encoding="UTF-8"?>
<svg aria-labelledby="title desc" role="img" viewBox="0 0 1073 360" xmlns="http://www.w3.org/2000/svg">
<title id="title">Waystone Banner</title>
<svg x="92" y="44" width="272" height="272" viewBox="0 0 256 256" xmlns="http://www.w3.org/2000/svg">
<defs>
<linearGradient id="d" x1="32" x2="224" y1="24" y2="232" gradientUnits="userSpaceOnUse">
<stop stop-color="#1E3A5F" offset="0"/>
<stop stop-color="#0F172A" offset="1"/>
</linearGradient>
<linearGradient id="e" x1="62" x2="196" y1="42" y2="214" gradientUnits="userSpaceOnUse">
<stop stop-color="#F8FAFC" offset="0"/>
<stop stop-color="#CBD5E1" offset="1"/>
</linearGradient>
<linearGradient id="f" x1="62" x2="94" y1="42" y2="214" gradientUnits="userSpaceOnUse">
<stop stop-color="#94A3B8" offset="0"/>
<stop stop-color="#475569" offset="1"/>
</linearGradient>
</defs>
<rect x="20" y="20" width="216" height="216" rx="52" fill="url(#d)"/>
<path d="m76 46h104c11 0 20 9 20 20v124c0 11-9 20-20 20h-104c-11 0-20-9-20-20v-124c0-11 9-20 20-20z" fill="url(#e)"/>
<path d="m76 46h20v164h-20c-11 0-20-9-20-20v-124c0-11 9-20 20-20z" fill="url(#f)"/>
<rect x="91" y="62" width="3" height="132" rx="1.5" fill="#1E293B" opacity=".26"/>
<circle cx="116" cy="86" r="6" fill="#1E3A5F"/>
<circle cx="116" cy="128" r="6" fill="#1E3A5F"/>
<circle cx="116" cy="170" r="6" fill="#1E3A5F"/>
<path d="m116 92v30m0 12v30" opacity=".55" stroke="#1E3A5F" stroke-linecap="round" stroke-width="4"/>
<rect x="132" y="78" width="42" height="8" rx="4" fill="#1E293B"/>
<rect x="132" y="120" width="52" height="8" rx="4" fill="#1E293B"/>
<rect x="132" y="162" width="36" height="8" rx="4" fill="#1E293B"/>
<rect x="132" y="94" width="32" height="6" rx="3" fill="#64748B"/>
<rect x="132" y="136" width="40" height="6" rx="3" fill="#64748B"/>
<rect x="132" y="178" width="46" height="6" rx="3" fill="#64748B"/>
<rect x="88" y="226" width="80" height="8" rx="4" fill="#334155" opacity=".9"/>
</svg>

<rect x="416" y="92" width="1.5" height="176" rx=".75" fill="#94a3b8"/>
<path d="m520.76 180.64h-18.826l-8.163-33.51c-0.246-0.957-0.519-3.336-0.82-7.137h-0.164c-0.41 3.363-0.807 5.742-1.189 7.137l-8.819 33.51h-19.933l-14.028-58.817h19.442l4.922 34.617c0.082 0.438 0.205 1.709 0.369 3.815l0.246 3.404h0.246c0.055-0.711 0.219-1.921 0.492-3.63 0.274-1.709 0.533-2.987 0.779-3.835l9.065-34.371h19.318l7.547 34.863 0.533 3.487 0.411 3.404h0.164l0.123-1.435 0.533-5.702 5.127-34.617h17.472zm65.365 0-2.584-10.829h-17.555l-2.789 10.829h-19.154l20.262-58.817h21.984l19.072 58.817zm-11.156-46.02h-0.41c-0.055 0.656-0.246 1.736-0.575 3.24-0.328 1.504-1.982 7.957-4.963 19.36h11.239l-4.102-15.996c-0.574-2.352-0.971-4.553-1.189-6.604zm74.347 25.594v20.426h-17.718v-20.18l-18.129-38.637h20.344l6.357 18.498c0.437 1.258 0.745 2.352 0.923 3.281 0.177 0.93 0.376 1.874 0.595 2.831h0.164c0.355-2.489 0.751-4.416 1.189-5.784l6.275-18.826h18.745zm72.379 2.625c0 3.91-1.046 7.314-3.137 10.213-2.092 2.898-5.025 5.058-8.798 6.48-3.774 1.422-8.313 2.133-13.617 2.133-6.153 0-11.786-1.039-16.899-3.117v-16.119c2.461 1.804 5.182 3.26 8.162 4.368 2.981 1.107 5.756 1.661 8.326 1.661 1.942 0 3.446-0.349 4.512-1.046 1.067-0.697 1.6-1.716 1.6-3.056 0-0.957-0.267-1.797-0.8-2.522s-1.34-1.401-2.42-2.03-3.083-1.491-6.009-2.584c-9.461-3.637-14.191-9.516-14.191-17.637 0-5.688 2.16-10.233 6.48-13.638 4.321-3.404 10.117-5.106 17.391-5.106 2.051 0 3.937 0.082 5.66 0.246s3.288 0.369 4.696 0.615c1.409 0.246 3.384 0.711 5.927 1.395v14.97c-4.949-2.707-9.816-4.06-14.601-4.06-1.969 0-3.555 0.369-4.758 1.107-1.203 0.739-1.805 1.75-1.805 3.035 0 1.231 0.485 2.249 1.456 3.056s3.001 1.853 6.091 3.138c6.098 2.461 10.411 5.154 12.94 8.08 2.53 2.926 3.794 6.398 3.794 10.418zm43.914-27.153v44.954h-17.8v-44.954h-16.448v-13.863h50.901v13.863zm86.653 15.381c0 5.907-1.272 11.191-3.815 15.853s-6.097 8.285-10.664 10.869c-4.566 2.584-9.679 3.876-15.34 3.876-5.523 0-10.548-1.251-15.073-3.753s-8.046-6.016-10.561-10.541c-2.516-4.525-3.774-9.645-3.774-15.36 0-5.989 1.272-11.375 3.815-16.16 2.543-4.786 6.111-8.484 10.705-11.095 4.593-2.612 9.816-3.917 15.668-3.917 5.632 0 10.67 1.251 15.114 3.753 4.443 2.502 7.875 6.07 10.295 10.705s3.63 9.891 3.63 15.77zm-18.785 0.493c0-4.84-0.93-8.655-2.789-11.444-1.86-2.789-4.403-4.183-7.629-4.183-3.528 0-6.276 1.339-8.245 4.019-1.968 2.68-2.953 6.467-2.953 11.361 0 4.786 0.978 8.518 2.933 11.198 1.955 2.679 4.614 4.019 7.977 4.019 2.051 0 3.897-0.601 5.538-1.804 1.64-1.204 2.912-2.926 3.814-5.168 0.902-2.243 1.354-4.909 1.354-7.998zm75.209 29.08-20.754-28.383c-1.641-2.242-2.981-4.266-4.02-6.071h-0.164c0.164 2.899 0.246 6.153 0.246 9.762v24.692h-16.406v-58.817h16.734l19.893 26.988c0.246 0.356 0.547 0.78 0.902 1.272 0.356 0.492 0.711 0.998 1.067 1.518 0.355 0.519 0.69 1.025 1.004 1.517 0.315 0.492 0.554 0.93 0.718 1.313h0.164c-0.164-1.204-0.246-3.282-0.246-6.235v-26.373h16.406v58.817zm34.111 0v-58.817h36.627v13.863h-18.908v8.573h17.759v13.863h-17.759v8.654h20.261v13.864z" fill="#294760"/>
<path d="m458.06 235.76v7.617h-3.472v-21.006h6.372c2.412 0 4.282 0.562 5.61 1.685s1.992 2.705 1.992 4.746-0.693 3.711-2.08 5.01c-1.386 1.298-3.261 1.948-5.625 1.948zm0-10.518v7.676h2.255c1.495 0 2.632-0.347 3.413-1.04 0.782-0.693 1.172-1.67 1.172-2.93 0-2.47-1.435-3.706-4.306-3.706zm22.132 18.487c-2.315 0-4.163-0.701-5.545-2.102-1.382-1.402-2.073-3.26-2.073-5.574 0-2.52 0.721-4.487 2.161-5.903s3.381-2.124 5.823-2.124c2.343 0 4.17 0.688 5.478 2.065 1.309 1.377 1.963 3.286 1.963 5.728 0 2.392-0.705 4.309-2.117 5.749-1.411 1.44-3.308 2.161-5.69 2.161zm0.161-12.994c-1.329 0-2.378 0.464-3.15 1.392-0.771 0.928-1.157 2.207-1.157 3.838 0 1.572 0.391 2.81 1.172 3.713 0.781 0.904 1.826 1.355 3.135 1.355 1.338 0 2.365-0.444 3.083-1.333 0.718-0.888 1.077-2.153 1.077-3.794 0-1.65-0.359-2.924-1.077-3.823-0.718-0.898-1.745-1.348-3.083-1.348zm21.604 0.879c-0.41-0.322-1.001-0.483-1.772-0.483-1.006 0-1.846 0.454-2.52 1.362-0.673 0.909-1.01 2.144-1.01 3.706v7.178h-3.399v-15h3.399v3.091h0.058c0.332-1.055 0.843-1.878 1.531-2.468 0.688-0.591 1.458-0.887 2.307-0.887 0.615 0 1.084 0.093 1.406 0.279zm12.113 11.602c-0.664 0.332-1.538 0.498-2.622 0.498-2.91 0-4.365-1.396-4.365-4.189v-8.482h-2.505v-2.666h2.505v-3.472l3.398-0.966v4.438h3.589v2.666h-3.589v7.5c0 0.889 0.161 1.524 0.483 1.904 0.323 0.381 0.86 0.572 1.612 0.572 0.576 0 1.074-0.166 1.494-0.498zm16.243 0.161h-3.296v-2.344h-0.058c-1.035 1.797-2.554 2.696-4.556 2.696-1.475 0-2.629-0.401-3.464-1.202-0.835-0.8-1.253-1.86-1.253-3.178 0-2.832 1.631-4.483 4.893-4.951l4.453-0.63c0-2.139-1.016-3.208-3.047-3.208-1.787 0-3.398 0.615-4.834 1.845v-2.973c1.582-0.938 3.408-1.406 5.479-1.406 3.789 0 5.683 1.865 5.683 5.595zm-3.281-7.368-3.149 0.439c-0.977 0.127-1.712 0.364-2.205 0.711s-0.74 0.954-0.74 1.824c0 0.634 0.227 1.154 0.681 1.56 0.454 0.405 1.062 0.608 1.824 0.608 1.035 0 1.892-0.364 2.571-1.092 0.679-0.727 1.018-1.643 1.018-2.746zm12.684 5.2h-0.059v2.168h-3.398v-22.207h3.398v9.844h0.059c1.162-1.992 2.861-2.988 5.097-2.988 1.895 0 3.377 0.671 4.446 2.014 1.07 1.342 1.604 3.142 1.604 5.398 0 2.509-0.6 4.519-1.802 6.027-1.201 1.509-2.841 2.264-4.921 2.264-1.954 0-3.428-0.84-4.424-2.52zm-0.088-5.962v1.861c0 1.093 0.349 2.021 1.047 2.783 0.698 0.761 1.585 1.142 2.659 1.142 1.26 0 2.248-0.49 2.966-1.472 0.718-0.981 1.077-2.351 1.077-4.109 0-1.474-0.335-2.629-1.004-3.464s-1.574-1.253-2.717-1.253c-1.211 0-2.185 0.43-2.922 1.29-0.738 0.859-1.106 1.933-1.106 3.222zm19.92 8.13h-3.413v-22.207h3.413zm18.924-6.577h-10.225c0.039 1.387 0.467 2.456 1.282 3.208s1.936 1.128 3.362 1.128c1.601 0 3.071-0.479 4.409-1.436v2.74c-1.367 0.859-3.174 1.289-5.42 1.289-2.207 0-3.938-0.681-5.193-2.044-1.255-1.362-1.882-3.279-1.882-5.749 0-2.334 0.691-4.236 2.073-5.706s3.098-2.204 5.149-2.204c2.05 0 3.637 0.659 4.76 1.977s1.685 3.149 1.685 5.493zm-3.281-2.402c-0.01-1.221-0.298-2.171-0.865-2.85-0.566-0.678-1.347-1.018-2.343-1.018-0.977 0-1.805 0.357-2.483 1.07-0.679 0.713-1.096 1.645-1.253 2.798zm21.822 6.767h-0.058v9.112h-3.399v-21.9h3.399v2.637h0.058c1.162-1.992 2.862-2.988 5.098-2.988 1.904 0 3.389 0.668 4.453 2.006 1.065 1.338 1.597 3.135 1.597 5.391 0 2.5-0.601 4.502-1.802 6.006s-2.842 2.256-4.922 2.256c-1.914 0-3.388-0.84-4.424-2.52zm-0.087-5.918v1.861c0 1.093 0.349 2.021 1.047 2.783 0.698 0.761 1.584 1.142 2.659 1.142 1.259 0 2.248-0.49 2.966-1.472 0.718-0.981 1.077-2.351 1.077-4.109 0-1.474-0.335-2.629-1.004-3.464s-1.575-1.253-2.717-1.253c-1.211 0-2.185 0.43-2.923 1.29-0.737 0.859-1.105 1.933-1.105 3.222zm25.208-3.633c-0.41-0.322-1.001-0.483-1.773-0.483-1.006 0-1.845 0.454-2.519 1.362-0.674 0.909-1.011 2.144-1.011 3.706v7.178h-3.398v-15h3.398v3.091h0.059c0.332-1.055 0.842-1.878 1.53-2.468 0.689-0.591 1.458-0.887 2.307-0.887 0.616 0 1.084 0.093 1.407 0.279zm10.852 12.115c-2.314 0-4.162-0.701-5.544-2.102-1.382-1.402-2.073-3.26-2.073-5.574 0-2.52 0.72-4.487 2.161-5.903 1.44-1.416 3.381-2.124 5.823-2.124 2.343 0 4.17 0.688 5.478 2.065 1.309 1.377 1.963 3.286 1.963 5.728 0 2.392-0.706 4.309-2.117 5.749s-3.308 2.161-5.691 2.161zm0.162-12.994c-1.329 0-2.378 0.464-3.15 1.392-0.771 0.928-1.157 2.207-1.157 3.838 0 1.572 0.391 2.81 1.172 3.713 0.781 0.904 1.826 1.355 3.135 1.355 1.337 0 2.365-0.444 3.083-1.333 0.718-0.888 1.077-2.153 1.077-3.794 0-1.65-0.359-2.924-1.077-3.823-0.718-0.898-1.746-1.348-3.083-1.348zm16.302 12.012c0 2.461-0.518 4.358-1.553 5.691s-2.515 2-4.439 2c-0.713 0-1.406-0.157-2.08-0.469v-2.915c0.635 0.439 1.236 0.659 1.802 0.659 1.914 0 2.871-1.689 2.871-5.068v-14.268h3.399zm-1.67-17.519c-0.557 0-1.033-0.181-1.429-0.542-0.395-0.362-0.593-0.821-0.593-1.377 0-0.557 0.198-1.021 0.593-1.392 0.396-0.371 0.872-0.557 1.429-0.557 0.566 0 1.049 0.186 1.45 0.557 0.4 0.371 0.6 0.835 0.6 1.392 0 0.527-0.2 0.979-0.6 1.355-0.401 0.376-0.884 0.564-1.45 0.564zm20.608 11.572h-10.224c0.039 1.387 0.466 2.456 1.281 3.208 0.816 0.752 1.936 1.128 3.362 1.128 1.602 0 3.071-0.479 4.409-1.436v2.74c-1.367 0.859-3.174 1.289-5.42 1.289-2.207 0-3.938-0.681-5.192-2.044-1.255-1.362-1.883-3.279-1.883-5.749 0-2.334 0.691-4.236 2.073-5.706s3.098-2.204 5.149-2.204 3.638 0.659 4.761 1.977 1.684 3.149 1.684 5.493zm-3.281-2.402c-0.01-1.221-0.298-2.171-0.864-2.85-0.567-0.678-1.348-1.018-2.344-1.018-0.977 0-1.804 0.357-2.483 1.07s-1.096 1.645-1.252 2.798zm19.056 8.291c-1.201 0.693-2.622 1.04-4.263 1.04-2.226 0-4.023-0.696-5.39-2.088-1.368-1.391-2.051-3.196-2.051-5.412 0-2.471 0.735-4.456 2.204-5.955 1.47-1.499 3.435-2.248 5.896-2.248 1.367 0 2.574 0.239 3.618 0.717v3.164c-1.044-0.781-2.158-1.172-3.339-1.172-1.436 0-2.613 0.486-3.531 1.458s-1.377 2.244-1.377 3.816c0 1.553 0.433 2.778 1.297 3.677 0.864 0.898 2.024 1.347 3.479 1.347 1.22 0 2.373-0.434 3.457-1.303zm13.079 0.527c-0.664 0.332-1.538 0.498-2.622 0.498-2.91 0-4.365-1.396-4.365-4.189v-8.482h-2.505v-2.666h2.505v-3.472l3.398-0.966v4.438h3.589v2.666h-3.589v7.5c0 0.889 0.161 1.524 0.484 1.904 0.322 0.381 0.859 0.572 1.611 0.572 0.576 0 1.074-0.166 1.494-0.498zm28.107 0.161h-3.399v-8.203c0-2.969-0.991-4.453-2.973-4.453-0.996 0-1.836 0.43-2.52 1.289-0.683 0.859-1.025 1.958-1.025 3.296v8.071h-3.413v-22.207h3.413v9.697h0.059c1.132-1.894 2.753-2.841 4.863-2.841 3.33 0 4.995 2.036 4.995 6.108zm7.645-18.149c-0.557 0-1.033-0.181-1.429-0.542-0.395-0.362-0.593-0.821-0.593-1.377 0-0.557 0.198-1.021 0.593-1.392 0.396-0.371 0.872-0.557 1.429-0.557 0.576 0 1.064 0.186 1.465 0.557 0.4 0.371 0.6 0.835 0.6 1.392 0 0.527-0.2 0.979-0.6 1.355-0.401 0.376-0.889 0.564-1.465 0.564zm1.684 18.149h-3.398v-15h3.398zm5.301-0.469v-3.149c1.27 0.967 2.671 1.45 4.204 1.45 2.051 0 3.077-0.605 3.077-1.816 0-0.342-0.088-0.633-0.264-0.872s-0.413-0.452-0.711-0.637c-0.298-0.186-0.649-0.352-1.054-0.498-0.406-0.147-0.857-0.313-1.355-0.498-0.616-0.244-1.17-0.503-1.663-0.777-0.493-0.273-0.903-0.583-1.23-0.93-0.328-0.346-0.574-0.739-0.74-1.179-0.166-0.439-0.249-0.952-0.249-1.538 0-0.723 0.171-1.36 0.513-1.912 0.341-0.551 0.8-1.015 1.377-1.391 0.576-0.376 1.23-0.659 1.962-0.85 0.733-0.19 1.49-0.285 2.271-0.285 1.387 0 2.627 0.209 3.721 0.629v2.974c-1.055-0.723-2.266-1.084-3.633-1.084-0.43 0-0.818 0.044-1.165 0.132-0.346 0.088-0.642 0.21-0.886 0.366s-0.435 0.344-0.571 0.564c-0.137 0.22-0.205 0.462-0.205 0.725 0 0.322 0.068 0.596 0.205 0.82 0.136 0.225 0.339 0.423 0.608 0.594 0.268 0.171 0.59 0.327 0.966 0.468 0.376 0.142 0.809 0.296 1.297 0.462 0.644 0.264 1.223 0.532 1.736 0.806 0.512 0.273 0.949 0.583 1.311 0.93 0.361 0.346 0.639 0.747 0.835 1.201 0.195 0.454 0.293 0.994 0.293 1.619 0 0.761-0.176 1.425-0.528 1.992-0.351 0.566-0.82 1.035-1.406 1.406s-1.262 0.647-2.029 0.828c-0.766 0.18-1.575 0.271-2.424 0.271-1.641 0-3.062-0.274-4.263-0.821zm23.582 0.308c-0.664 0.332-1.538 0.498-2.622 0.498-2.91 0-4.365-1.396-4.365-4.189v-8.482h-2.505v-2.666h2.505v-3.472l3.399-0.966v4.438h3.588v2.666h-3.588v7.5c0 0.889 0.161 1.524 0.483 1.904 0.322 0.381 0.859 0.572 1.611 0.572 0.576 0 1.074-0.166 1.494-0.498zm11.381 0.513c-2.315 0-4.163-0.701-5.545-2.102-1.382-1.402-2.073-3.26-2.073-5.574 0-2.52 0.72-4.487 2.161-5.903 1.44-1.416 3.381-2.124 5.823-2.124 2.343 0 4.17 0.688 5.478 2.065 1.309 1.377 1.963 3.286 1.963 5.728 0 2.392-0.705 4.309-2.117 5.749-1.411 1.44-3.308 2.161-5.69 2.161zm0.161-12.994c-1.329 0-2.378 0.464-3.15 1.392-0.771 0.928-1.157 2.207-1.157 3.838 0 1.572 0.391 2.81 1.172 3.713 0.781 0.904 1.826 1.355 3.135 1.355 1.337 0 2.365-0.444 3.083-1.333 0.718-0.888 1.077-2.153 1.077-3.794 0-1.65-0.359-2.924-1.077-3.823-0.718-0.898-1.746-1.348-3.083-1.348zm21.604 0.879c-0.41-0.322-1.001-0.483-1.772-0.483-1.006 0-1.846 0.454-2.52 1.362-0.673 0.909-1.01 2.144-1.01 3.706v7.178h-3.399v-15h3.399v3.091h0.058c0.332-1.055 0.842-1.878 1.531-2.468 0.688-0.591 1.457-0.887 2.307-0.887 0.615 0 1.084 0.093 1.406 0.279zm17.196-3.237-6.768 17.402c-1.406 3.106-3.379 4.659-5.918 4.659-0.713 0-1.308-0.064-1.787-0.191v-2.827c0.537 0.176 1.026 0.264 1.465 0.264 1.27 0 2.217-0.625 2.842-1.875l1.011-2.461-5.962-14.971h3.764l3.575 10.899c0.039 0.136 0.126 0.498 0.263 1.084h0.073c0.049-0.225 0.137-0.577 0.264-1.055l3.75-10.928zm22.584-4.438c-0.459-0.264-0.981-0.396-1.567-0.396-1.651 0-2.476 0.933-2.476 2.798v2.036h3.487v2.666h-3.472v12.334h-3.399v-12.334h-2.563v-2.666h2.563v-2.432c0-1.582 0.518-2.829 1.553-3.742s2.329-1.37 3.882-1.37c0.84 0 1.504 0.093 1.992 0.278zm10.311 19.79c-2.314 0-4.163-0.701-5.544-2.102-1.382-1.402-2.073-3.26-2.073-5.574 0-2.52 0.72-4.487 2.16-5.903 1.441-1.416 3.382-2.124 5.823-2.124 2.344 0 4.17 0.688 5.479 2.065 1.308 1.377 1.963 3.286 1.963 5.728 0 2.392-0.706 4.309-2.117 5.749s-3.308 2.161-5.691 2.161zm0.161-12.994c-1.328 0-2.378 0.464-3.149 1.392-0.772 0.928-1.158 2.207-1.158 3.838 0 1.572 0.391 2.81 1.172 3.713 0.782 0.904 1.826 1.355 3.135 1.355 1.338 0 2.366-0.444 3.084-1.333 0.717-0.888 1.076-2.153 1.076-3.794 0-1.65-0.359-2.924-1.076-3.823-0.718-0.898-1.746-1.348-3.084-1.348zm21.605 0.879c-0.41-0.322-1.001-0.483-1.773-0.483-1.006 0-1.845 0.454-2.519 1.362-0.674 0.909-1.011 2.144-1.011 3.706v7.178h-3.398v-15h3.398v3.091h0.059c0.332-1.055 0.842-1.878 1.53-2.468 0.689-0.591 1.458-0.887 2.308-0.887 0.615 0 1.084 0.093 1.406 0.279zm31.022 10.328c-2.188 1.191-4.624 1.787-7.31 1.787-3.105 0-5.62-0.967-7.544-2.901-1.924-1.933-2.886-4.492-2.886-7.676 0-3.251 1.053-5.92 3.157-8.005 2.105-2.085 4.778-3.127 8.02-3.127 2.334 0 4.297 0.341 5.889 1.025v3.589c-1.611-1.074-3.53-1.611-5.757-1.611-2.236 0-4.07 0.737-5.5 2.212-1.431 1.474-2.146 3.383-2.146 5.727 0 2.412 0.615 4.309 1.845 5.691 1.231 1.382 2.901 2.073 5.01 2.073 1.445 0 2.695-0.279 3.75-0.835v-4.995h-4.424v-2.93h7.896zm7.659-16.714c-0.557 0-1.033-0.181-1.428-0.542-0.396-0.362-0.593-0.821-0.593-1.377 0-0.557 0.197-1.021 0.593-1.392 0.395-0.371 0.871-0.557 1.428-0.557 0.576 0 1.064 0.186 1.465 0.557 0.4 0.371 0.6 0.835 0.6 1.392 0 0.527-0.2 0.979-0.6 1.355-0.401 0.376-0.889 0.564-1.465 0.564zm1.685 18.149h-3.399v-15h3.399zm14.148-0.161c-0.664 0.332-1.538 0.498-2.622 0.498-2.91 0-4.365-1.396-4.365-4.189v-8.482h-2.505v-2.666h2.505v-3.472l3.398-0.966v4.438h3.589v2.666h-3.589v7.5c0 0.889 0.162 1.524 0.484 1.904 0.322 0.381 0.859 0.572 1.611 0.572 0.576 0 1.074-0.166 1.494-0.498z" fill="#6f7d8a"/>
</svg>
